<?xml version="1.0" encoding="UTF-8"?>
<svg id="Layer_2" data-name="Layer 2" xmlns="http://www.w3.org/2000/svg" viewBox="0 0 16.12 20">
  <defs>
    <style>
      .cls-1 {
        fill: #f0f6fc;
      }
    </style>
  </defs>
  <g id="Layer_1-2" data-name="Layer 1">
    <g id="melapress-login-security-icon.svg">
      <g id="uuid-765269a9-fdb0-4fa0-9c73-45ef853c6177" data-name="Layer 1-2">
        <g id="mpls_icon" data-name="mpls icon">
          <polygon class="cls-1" points="11.78 4.05 9.3 4.04 9.3 4.05 9.3 4.05 9.3 8.76 11.78 8.76 11.78 6.83 15.15 10 11.78 13.17 11.78 11.24 9.3 11.24 9.3 15.95 9.3 15.95 9.3 15.95 16.12 15.95 16.12 10 16.12 4.05 11.78 4.05"/>
          <polygon class="cls-1" points="0 2.97 0 3.62 0 8.76 0 11.24 0 16.28 0 16.93 0 17.03 6.82 20 6.82 14.69 6.82 14.68 6.82 11.24 2.48 11.24 2.48 8.76 6.82 8.76 6.82 5.32 6.82 0 0 2.97"/>
        </g>
      </g>
    </g>
  </g>
</svg>